# xmcd
#
# Track frame offsets:
# 150
# 26912
# 43702
# 61935
# 74922
# 90507
# 107920
# 121982
# 139587
# 156997
#
# Disc length: 2349 seconds
#
#
# Revision: 0
# Processed by: cddbd v1.5.2PL0 Copyright (c) Steve Scherf et al.
# Submitted via: FreeRIP 2.931 
#
DISCID=90092b0a
DTITLE=marcos antonio - toma os pedaços
DYEAR=2000
DGENRE=Gospel
TTITLE0=TOMA OA PEDAÇOS
TTITLE1=QUASE MORRI
TTITLE2=TOCAR DE CRISTO
TTITLE3=HEI TÁ LÁ
TTITLE4=MUDOU MEU VIVER
TTITLE5=DE VOLTA PRA CASA
TTITLE6=MEU CANTO
TTITLE7=AS TRES COROAS
TTITLE8=SEGREDO
TTITLE9=PRECISO
EXTD=
EXTT0=
EXTT1=
EXTT2=
EXTT3=
EXTT4=
EXTT5=
EXTT6=
EXTT7=
EXTT8=
EXTT9=
PLAYORDER=
